<svg width="24" height="24" viewBox="0 0 24 24" fill="none" xmlns="http://www.w3.org/2000/svg">
<g clip-path="url(#clip0_225_3354)">
<rect width="24" height="24" rx="12" fill="black"/>
<g clip-path="url(#clip1_225_3354)">
<path d="M4.65306 19.2656C5.00541 20.9611 6.65392 22.0569 8.35033 21.7303L8.39046 21.7223L8.39361 21.7216L8.39681 21.7209L19.2655 19.3469H19.2655C20.9744 18.9918 22.0742 17.32 21.7222 15.6095L21.7216 15.6063L21.7209 15.6031L19.3469 4.73442C18.9917 3.02558 17.3199 1.92578 15.6094 2.27772L15.6063 2.27839L15.6031 2.27906L4.73574 4.65282C3.0261 5.0074 1.92571 6.67958 2.27769 8.39054L2.27836 8.39369L2.27903 8.39689L4.65306 19.2656ZM8.17412 20.6774C7.05706 20.9065 5.96506 20.2018 5.70848 19.0971L5.69686 19.0442L5.69624 19.0411L5.69551 19.0379L3.32247 8.17383C3.09361 7.05684 3.79833 5.96502 4.90286 5.70845L4.95575 5.69688L4.95895 5.69621L4.9621 5.69554L15.8258 3.3227C16.9606 3.08994 18.0695 3.82084 18.3031 4.95577L18.3037 4.95898L18.3044 4.96213L20.6773 15.8259C20.91 16.9607 20.1791 18.0696 19.0442 18.3031L19.041 18.3037L19.0378 18.3044L8.17412 20.6774Z" fill="white"/>
<path d="M8.01779 19.3261C8.69853 20.532 10.2245 20.9696 11.4425 20.3022L19.2973 15.9982L19.326 15.9823C20.5319 15.3016 20.9695 13.7756 20.3022 12.5577V12.5576L15.9982 4.70277C15.3308 3.48484 13.8092 3.03247 12.5864 3.68242L12.5576 3.69796L4.70269 8.00196C3.47512 8.67457 3.02527 10.215 3.69788 11.4426L8.00189 19.2974L8.01779 19.3261ZM10.9297 19.3665C10.23 19.7498 9.35491 19.5034 8.95629 18.8177L8.93764 18.7847L4.63364 10.9298C4.24419 10.2191 4.5047 9.32719 5.21543 8.93777L13.0702 4.63377H13.0703C13.7811 4.24434 14.6729 4.5048 15.0623 5.2155L19.3664 13.0704C19.7497 13.7701 19.5033 14.6452 18.8176 15.0438L18.7846 15.0625L10.9297 19.3665Z" fill="white"/>
<path d="M11.3875 18.1502C12.2497 18.7874 13.4676 18.6241 14.1302 17.7735H14.1303L18.1191 12.6533L18.1501 12.6125C18.7873 11.7504 18.624 10.5325 17.7735 9.86978V9.86972L12.6532 5.88086C11.8026 5.21819 10.5817 5.35787 9.90161 6.1866L9.86965 6.22662L5.88078 11.3468C5.2076 12.211 5.36239 13.4572 6.22655 14.1304L11.3467 18.1193L11.3875 18.1502ZM13.2885 17.1178C12.9824 17.5108 12.4197 17.5862 12.0214 17.2918L12.0025 17.2775L6.88228 13.2886C6.48305 12.9776 6.41152 12.4019 6.72255 12.0026L10.7114 6.88236L10.7262 6.86387C11.0404 6.48099 11.6044 6.4165 11.9974 6.72262H11.9974L17.1177 10.7115L17.1361 10.7263C17.519 11.0405 17.5835 11.6045 17.2774 11.9975V11.9976L13.2885 17.1178Z" fill="white"/>
<path d="M14.5871 14.1571C14.5871 14.3947 14.3945 14.5873 14.1569 14.5873H9.84292C9.6053 14.5873 9.41267 14.3947 9.41266 14.1571V9.84308C9.41266 9.60546 9.6053 9.41284 9.84292 9.41283H14.1569C14.3945 9.41283 14.5871 9.60545 14.5871 9.84308V14.1571ZM15.6542 9.84308C15.6542 9.01615 14.9838 8.34579 14.1569 8.34579H9.84292C9.01599 8.3458 8.34567 9.01615 8.34567 9.84308V14.1571C8.34568 14.984 9.01599 15.6543 9.84292 15.6543H14.1569C14.9838 15.6543 15.6542 14.984 15.6542 14.1571V9.84308Z" fill="white"/>
<path d="M22.1652 11.9999C22.1652 17.614 17.6141 22.1651 12 22.1651C6.38591 22.1651 1.83478 17.614 1.83478 11.9999C1.83478 6.38581 6.38591 1.83468 12 1.83468C17.6141 1.83468 22.1652 6.38581 22.1652 11.9999ZM22.9886 11.9999C22.9886 5.93102 18.0689 1.01125 12 1.01125C5.93112 1.01125 1.01135 5.93102 1.01135 11.9999C1.01135 18.0688 5.93112 22.9885 12 22.9885C18.0689 22.9885 22.9886 18.0688 22.9886 11.9999Z" fill="white"/>
</g>
</g>
<defs>
<clipPath id="clip0_225_3354">
<rect width="24" height="24" fill="white"/>
</clipPath>
<clipPath id="clip1_225_3354">
<rect width="22" height="22" fill="white" transform="matrix(1 0 0 -1 1 23)"/>
</clipPath>
</defs>
</svg>
